<svg width="913" height="211" viewBox="0 0 913 211" fill="none" xmlns="http://www.w3.org/2000/svg">
<path d="M748.511 0.261582C756.2 0.563193 777.781 -0.718291 783.742 0.630971C784.555 1.81418 785.107 6.0498 784.328 6.66368C781.952 8.54161 773.237 7.7244 770.571 7.67017L770.455 80.1769C770.46 84.0383 771.011 102.012 770.358 104.325C769.318 105.117 767.697 104.904 766.337 104.889L761.934 104.308C740.265 75.7447 717.764 46.8438 696.652 17.9651C697.586 23.4943 697.243 39.0077 697.243 45.2137L697.214 95.3146C701.84 95.3799 706.132 95.272 710.758 95.1171L711.159 102.64C700.775 103.28 685.228 102.756 674.466 102.73C674.442 100.306 674.524 97.8824 674.708 95.4656C679.107 95.2163 684.028 95.2638 688.475 95.2178C687.933 88.1597 688.392 73.8131 688.392 66.113L688.388 7.69438C683.902 7.56899 679.17 7.69438 674.66 7.74909C674.553 5.39333 674.64 2.61444 674.665 0.222851C705.827 1.37168 696.517 -5.80453 716.38 20.5184L747.62 61.7912C751.598 67.0411 758.295 76.6162 762.374 81.2667C762.151 56.7403 762.079 32.213 762.151 7.68615C757.511 7.62951 752.875 7.66872 748.24 7.80476L748.511 0.261582Z" fill="#E6E3DC"/>
<path d="M464.779 0.143932C473.082 0.728274 490.28 0.519131 498.651 0.177337C498.786 2.50647 498.714 5.35168 498.709 7.72536C494.654 7.72052 490.604 7.73698 486.549 7.77425C480.06 18.1147 472.835 28.0422 465.984 38.1416C464 41.0662 461.967 44.0339 459.674 46.7223C462.059 50.8829 466.569 57.0937 469.274 61.2204C476.716 72.5872 484.628 83.7885 491.872 95.2831C495.641 95.2047 499.415 95.2483 503.18 95.4148C503.441 97.6829 503.393 100.365 503.407 102.68C501.361 102.809 498.433 102.742 496.309 102.76C484.957 102.827 473.605 102.8 462.258 102.679L462.19 95.4811C466.448 95.1451 470.731 95.1795 474.984 95.5833C466.409 84.4604 458.493 69.941 450.098 58.839C448.259 62.2937 443.396 69.0918 441.048 72.5248C435.87 80.1895 430.607 87.7961 425.26 95.3436L438.801 95.2066L438.702 102.796L404.448 102.806L404.543 95.4104C407.984 95.1974 412.821 95.348 416.368 95.364C418.497 92.7778 423.756 84.5486 425.821 81.5063C432.356 71.7013 439.036 61.9936 445.859 52.3875C444.567 50.3198 443.139 48.2235 441.752 46.2154C433.008 33.5468 424.903 20.3001 416.115 7.68518C412.353 7.58884 408.789 7.6997 405.031 7.80766L405.218 0.231559C417.353 0.759742 433.656 0.477496 445.873 0.190893C445.989 2.6672 445.985 5.21613 446.009 7.70067C442.005 7.78491 437.684 7.67937 433.656 7.6542L455.575 40.6983C461.198 31.3779 471.379 16.4121 478.1 7.69341C473.619 7.65855 469.231 7.52106 464.774 8.05408C464.88 5.52403 464.798 2.6977 464.779 0.143932Z" fill="#E6E3DC"/>
<path d="M360.99 0.118275L361.555 0.410205C362.026 1.93036 361.825 5.89827 361.798 7.68954C357.325 7.67018 353.174 7.83042 348.702 8.03327C348.719 8.3891 348.73 8.74542 348.734 9.10222L348.798 45.176C348.813 60.5891 350.834 83.4172 339.256 95.3354C329.321 105.563 309.99 105.817 296.694 103.708C266.349 98.8952 269.385 67.9687 269.392 44.8928L269.415 7.66824C265.059 7.6145 260.702 7.65807 256.348 7.79943L256.444 0.327901L271.831 0.381639C280.099 0.467814 288.367 0.409235 296.633 0.205418C296.855 3.13342 296.774 4.85643 296.594 7.80282C292.237 7.6968 287.93 7.8556 283.557 7.72827L283.484 11.1966C283.354 19.4122 283.496 27.6617 283.434 35.8807C283.414 38.5454 283.375 41.302 283.429 43.9652C283.644 54.9132 282.698 65.6323 284.862 76.4443C287.76 90.9211 297.533 95.6385 311.406 95.7338C323.949 95.82 334.812 91.8778 338.071 78.5832C340.981 66.7129 340.293 54.5942 340.277 42.4707L340.209 7.69341C335.804 7.59755 331.396 7.64548 326.994 7.8372L327.183 0.118275C334.773 0.80283 353.315 0.533656 360.99 0.118275Z" fill="#E6E3DC"/>
<path d="M633.336 0.13522L633.476 0.268355C634.081 1.67716 633.82 5.87939 633.791 7.64548C630.573 7.73311 627.137 7.64306 623.905 7.6145C615.001 23.4077 603.069 41.5232 593.381 57.3198C593.41 66.9564 594.083 86.5219 593.299 95.2739L606.683 95.2042L606.553 102.834C593.076 102.711 579.6 102.722 566.124 102.866L566.453 95.286C570.3 95.4734 575.526 95.2749 579.474 95.2381C578.424 87.0621 579.649 75.4223 579.373 66.9084C579.107 58.487 578.705 57.0259 573.987 49.7016C570.653 44.5316 567.368 39.1457 564.111 33.9926L547.949 7.64984C544.673 7.66194 541.364 7.73988 538.083 7.79217L538.455 0.246567C550.49 0.66921 564.513 0.416014 576.595 0.268839C577.224 10.4442 573.319 7.8067 564.595 7.68228C571.698 20.0038 583.849 37.4624 589.878 49.3738C596.139 37.7567 607.932 18.8806 615.398 7.6571C611.29 7.64064 607.675 7.68324 603.577 7.90739L603.843 0.292076C612.809 0.43102 624.544 0.621767 633.336 0.13522Z" fill="#E6E3DC"/>
<path d="M128.734 0.245602C137.892 0.70407 159.772 0.737959 168.697 0.0713158L168.747 7.72536L155.518 7.70939C156.214 20.4729 155.639 38.6858 155.64 51.7809C155.642 63.9073 156.177 82.432 155.39 94.1488C170.455 94.2258 187.186 94.5647 202.121 94.0554C202.266 88.4405 202.176 82.4121 202.197 76.7633C204.957 76.9124 207.967 76.8016 210.75 76.7546L210.498 85.1741C210.454 91.0242 210.564 96.874 210.828 102.718C204.67 103.192 193.946 102.664 187.283 102.762C167.815 103.05 147.796 102.337 128.359 102.903C128.5 100.372 128.436 97.8456 128.401 95.3107C132.792 95.2536 137.262 95.2942 141.661 95.2904C140.807 67.7576 141.383 35.5002 141.646 7.71036C137.255 7.62612 132.862 7.66824 128.473 7.8372L128.734 0.245602Z" fill="#E6E3DC"/>
<path d="M0 146.301C5.50368 145.379 25.938 145.942 32.4144 145.957L855.754 145.948L888.63 145.901C895.989 145.876 904.792 145.56 911.939 146.483L912.137 146.847C909.442 147.774 907.482 147.599 904.675 147.545L294.988 147.243L34.4728 147.441C23.8201 147.472 13.0502 147.545 2.38958 147.541C0.872303 147.541 0.869012 147.243 0 146.301Z" fill="#E6E3DC"/>
<path d="M146.034 208.865C147.642 208.865 148.938 208.469 149.922 207.677C150.93 206.885 151.434 205.721 151.434 204.185C151.434 202.961 151.062 201.941 150.318 201.125C149.574 200.285 148.278 199.613 146.43 199.109L143.946 198.389C142.122 197.885 140.73 197.033 139.77 195.833C138.81 194.633 138.33 193.169 138.33 191.441C138.33 190.289 138.594 189.209 139.122 188.201C139.674 187.193 140.502 186.377 141.606 185.753C142.734 185.129 144.162 184.817 145.89 184.817C147.81 184.817 149.358 185.177 150.534 185.897C151.71 186.593 152.526 187.505 152.982 188.633C153.438 189.761 153.546 190.973 153.306 192.269L150.282 192.917C150.594 190.685 150.366 188.969 149.598 187.769C148.854 186.569 147.558 185.969 145.71 185.969C144.246 185.969 143.094 186.365 142.254 187.157C141.414 187.925 140.994 189.053 140.994 190.541C140.994 191.717 141.33 192.725 142.002 193.565C142.674 194.381 143.862 195.029 145.566 195.509L148.05 196.229C152.058 197.333 154.062 199.673 154.062 203.249C154.062 204.521 153.762 205.673 153.162 206.705C152.586 207.713 151.698 208.517 150.498 209.117C149.322 209.717 147.834 210.017 146.034 210.017C144.786 210.017 143.586 209.825 142.434 209.441C141.306 209.057 140.334 208.397 139.518 207.461C138.726 206.525 138.198 205.229 137.934 203.573L140.094 202.853C140.214 204.437 140.562 205.661 141.138 206.525C141.714 207.389 142.434 208.001 143.298 208.361C144.162 208.697 145.074 208.865 146.034 208.865Z" fill="white"/>
<path d="M173.965 208.721V209.657H167.125V208.721L169.069 208.505C169.333 208.481 169.525 208.445 169.645 208.397C169.765 208.325 169.873 208.181 169.969 207.965C170.089 207.725 170.233 207.317 170.401 206.741L177.349 185.177H179.617L186.637 206.741C186.805 207.317 186.937 207.725 187.033 207.965C187.153 208.181 187.273 208.325 187.393 208.397C187.513 208.445 187.693 208.481 187.933 208.505L189.913 208.721V209.657H181.165V208.721L183.145 208.505C183.529 208.457 183.733 208.361 183.757 208.217C183.805 208.049 183.697 207.557 183.433 206.741L181.957 202.133H173.173L171.697 206.741C171.433 207.557 171.313 208.049 171.337 208.217C171.385 208.361 171.601 208.457 171.985 208.505L173.965 208.721ZM173.533 200.981H181.597L177.565 188.453L173.533 200.981Z" fill="white"/>
<path d="M218.098 203.717H219.07V209.657H202.69V208.721L204.67 208.505C205.054 208.457 205.282 208.361 205.354 208.217C205.426 208.073 205.462 207.581 205.462 206.741V188.093C205.462 187.253 205.426 186.761 205.354 186.617C205.282 186.473 205.054 186.377 204.67 186.329L202.69 186.149V185.177H211.366V186.149L209.386 186.329C209.002 186.377 208.774 186.473 208.702 186.617C208.63 186.761 208.594 187.253 208.594 188.093V208.505H215.11C215.686 208.505 216.094 208.493 216.334 208.469C216.574 208.421 216.73 208.337 216.802 208.217C216.898 208.073 216.982 207.857 217.054 207.569L218.098 203.717Z" fill="white"/>
<path d="M251.961 196.049V198.749C251.961 202.253 251.157 205.013 249.549 207.029C247.941 209.021 245.637 210.017 242.637 210.017C239.613 210.017 237.297 209.021 235.689 207.029C234.105 205.013 233.313 202.253 233.313 198.749V196.049C233.313 192.569 234.105 189.833 235.689 187.841C237.297 185.825 239.613 184.817 242.637 184.817C245.637 184.817 247.941 185.825 249.549 187.841C251.157 189.833 251.961 192.569 251.961 196.049ZM248.541 194.249C248.541 191.249 248.037 189.125 247.029 187.877C246.045 186.605 244.581 185.969 242.637 185.969C240.693 185.969 239.217 186.605 238.209 187.877C237.225 189.125 236.733 191.249 236.733 194.249V200.549C236.733 203.549 237.225 205.685 238.209 206.957C239.217 208.229 240.693 208.865 242.637 208.865C244.581 208.865 246.045 208.229 247.029 206.957C248.037 205.685 248.541 203.549 248.541 200.549V194.249Z" fill="white"/>
<path d="M282.382 186.149V185.177H289.258V186.149L287.278 186.329C286.894 186.377 286.666 186.485 286.594 186.653C286.522 186.797 286.486 187.277 286.486 188.093V209.657H284.722L271.618 187.553V206.741C271.618 207.557 271.654 208.049 271.726 208.217C271.798 208.361 272.026 208.457 272.41 208.505L274.39 208.721V209.657H267.514V208.721L269.494 208.505C269.878 208.457 270.106 208.361 270.178 208.217C270.25 208.049 270.286 207.557 270.286 206.741V188.093C270.286 187.277 270.25 186.797 270.178 186.653C270.106 186.485 269.878 186.377 269.494 186.329L267.514 186.149V185.177H273.742L285.154 204.473V188.093C285.154 187.277 285.118 186.797 285.046 186.653C284.974 186.485 284.746 186.377 284.362 186.329L282.382 186.149Z" fill="white"/>
<path d="M383.994 209.657L377.874 188.993L371.826 209.657H369.45L364.194 187.877C364.026 187.181 363.894 186.761 363.798 186.617C363.702 186.473 363.462 186.377 363.078 186.329L361.242 186.149V185.177H369.63V186.149L367.794 186.329C367.41 186.377 367.194 186.473 367.146 186.617C367.122 186.737 367.194 187.157 367.362 187.877L371.646 205.877L377.658 185.177H379.89L385.974 205.733L390.294 187.877C390.486 187.157 390.546 186.737 390.474 186.617C390.426 186.473 390.222 186.377 389.862 186.329L387.99 186.149V185.177H394.542V186.149L392.706 186.329C392.346 186.377 392.118 186.473 392.022 186.617C391.926 186.737 391.782 187.157 391.59 187.877L386.334 209.657H383.994Z" fill="white"/>
<path d="M423.662 203.789H424.598V209.657H407.354V208.721L409.334 208.505C409.718 208.457 409.946 208.361 410.018 208.217C410.09 208.073 410.126 207.581 410.126 206.741V188.093C410.126 187.253 410.09 186.761 410.018 186.617C409.946 186.473 409.718 186.377 409.334 186.329L407.354 186.149V185.177H424.13V191.045H423.23L422.186 187.265C422.114 186.977 422.03 186.773 421.934 186.653C421.862 186.509 421.706 186.425 421.466 186.401C421.226 186.353 420.818 186.329 420.242 186.329H413.258V196.733H418.082C418.658 196.733 419.066 196.721 419.306 196.697C419.546 196.649 419.702 196.565 419.774 196.445C419.87 196.301 419.954 196.085 420.026 195.797L420.71 193.097H421.646V201.521H420.71L420.026 198.821C419.954 198.533 419.87 198.329 419.774 198.209C419.702 198.065 419.546 197.981 419.306 197.957C419.066 197.909 418.658 197.885 418.082 197.885H413.258V208.505H420.674C421.25 208.505 421.658 208.493 421.898 208.469C422.138 208.421 422.294 208.337 422.366 208.217C422.462 208.073 422.546 207.857 422.618 207.569L423.662 203.789Z" fill="white"/>
<path d="M454.805 203.717H455.777V209.657H439.397V208.721L441.377 208.505C441.761 208.457 441.989 208.361 442.061 208.217C442.133 208.073 442.169 207.581 442.169 206.741V188.093C442.169 187.253 442.133 186.761 442.061 186.617C441.989 186.473 441.761 186.377 441.377 186.329L439.397 186.149V185.177H448.073V186.149L446.093 186.329C445.709 186.377 445.481 186.473 445.409 186.617C445.337 186.761 445.301 187.253 445.301 188.093V208.505H451.817C452.393 208.505 452.801 208.493 453.041 208.469C453.281 208.421 453.437 208.337 453.509 208.217C453.605 208.073 453.689 207.857 453.761 207.569L454.805 203.717Z" fill="white"/>
<path d="M484.492 203.717H485.464V209.657H469.084V208.721L471.064 208.505C471.448 208.457 471.676 208.361 471.748 208.217C471.82 208.073 471.856 207.581 471.856 206.741V188.093C471.856 187.253 471.82 186.761 471.748 186.617C471.676 186.473 471.448 186.377 471.064 186.329L469.084 186.149V185.177H477.76V186.149L475.78 186.329C475.396 186.377 475.168 186.473 475.096 186.617C475.024 186.761 474.988 187.253 474.988 188.093V208.505H481.504C482.08 208.505 482.488 208.493 482.728 208.469C482.968 208.421 483.124 208.337 483.196 208.217C483.292 208.073 483.376 207.857 483.448 207.569L484.492 203.717Z" fill="white"/>
<path d="M513.64 186.149V185.177H520.516V186.149L518.536 186.329C518.152 186.377 517.924 186.485 517.852 186.653C517.78 186.797 517.744 187.277 517.744 188.093V209.657H515.98L502.876 187.553V206.741C502.876 207.557 502.912 208.049 502.984 208.217C503.056 208.361 503.284 208.457 503.668 208.505L505.648 208.721V209.657H498.772V208.721L500.752 208.505C501.136 208.457 501.364 208.361 501.436 208.217C501.508 208.049 501.544 207.557 501.544 206.741V188.093C501.544 187.277 501.508 186.797 501.436 186.653C501.364 186.485 501.136 186.377 500.752 186.329L498.772 186.149V185.177H505L516.412 204.473V188.093C516.412 187.277 516.376 186.797 516.304 186.653C516.232 186.485 516.004 186.377 515.62 186.329L513.64 186.149Z" fill="white"/>
<path d="M551.13 203.789H552.066V209.657H534.822V208.721L536.802 208.505C537.186 208.457 537.414 208.361 537.486 208.217C537.558 208.073 537.594 207.581 537.594 206.741V188.093C537.594 187.253 537.558 186.761 537.486 186.617C537.414 186.473 537.186 186.377 536.802 186.329L534.822 186.149V185.177H551.598V191.045H550.698L549.654 187.265C549.582 186.977 549.498 186.773 549.402 186.653C549.33 186.509 549.174 186.425 548.934 186.401C548.694 186.353 548.286 186.329 547.71 186.329H540.726V196.733H545.55C546.126 196.733 546.534 196.721 546.774 196.697C547.014 196.649 547.17 196.565 547.242 196.445C547.338 196.301 547.422 196.085 547.494 195.797L548.178 193.097H549.114V201.521H548.178L547.494 198.821C547.422 198.533 547.338 198.329 547.242 198.209C547.17 198.065 547.014 197.981 546.774 197.957C546.534 197.909 546.126 197.885 545.55 197.885H540.726V208.505H548.142C548.718 208.505 549.126 208.493 549.366 208.469C549.606 208.421 549.762 208.337 549.834 208.217C549.93 208.073 550.014 207.857 550.086 207.569L551.13 203.789Z" fill="white"/>
<path d="M574.857 208.865C576.465 208.865 577.761 208.469 578.745 207.677C579.753 206.885 580.257 205.721 580.257 204.185C580.257 202.961 579.885 201.941 579.141 201.125C578.397 200.285 577.101 199.613 575.253 199.109L572.769 198.389C570.945 197.885 569.553 197.033 568.593 195.833C567.633 194.633 567.153 193.169 567.153 191.441C567.153 190.289 567.417 189.209 567.945 188.201C568.497 187.193 569.325 186.377 570.429 185.753C571.557 185.129 572.985 184.817 574.713 184.817C576.633 184.817 578.181 185.177 579.357 185.897C580.533 186.593 581.349 187.505 581.805 188.633C582.261 189.761 582.369 190.973 582.129 192.269L579.105 192.917C579.417 190.685 579.189 188.969 578.421 187.769C577.677 186.569 576.381 185.969 574.533 185.969C573.069 185.969 571.917 186.365 571.077 187.157C570.237 187.925 569.817 189.053 569.817 190.541C569.817 191.717 570.153 192.725 570.825 193.565C571.497 194.381 572.685 195.029 574.389 195.509L576.873 196.229C580.881 197.333 582.885 199.673 582.885 203.249C582.885 204.521 582.585 205.673 581.985 206.705C581.409 207.713 580.521 208.517 579.321 209.117C578.145 209.717 576.657 210.017 574.857 210.017C573.609 210.017 572.409 209.825 571.257 209.441C570.129 209.057 569.157 208.397 568.341 207.461C567.549 206.525 567.021 205.229 566.757 203.573L568.917 202.853C569.037 204.437 569.385 205.661 569.961 206.525C570.537 207.389 571.257 208.001 572.121 208.361C572.985 208.697 573.897 208.865 574.857 208.865Z" fill="white"/>
<path d="M605.74 208.865C607.348 208.865 608.644 208.469 609.628 207.677C610.636 206.885 611.14 205.721 611.14 204.185C611.14 202.961 610.768 201.941 610.024 201.125C609.28 200.285 607.984 199.613 606.136 199.109L603.652 198.389C601.828 197.885 600.436 197.033 599.476 195.833C598.516 194.633 598.036 193.169 598.036 191.441C598.036 190.289 598.3 189.209 598.828 188.201C599.38 187.193 600.208 186.377 601.312 185.753C602.44 185.129 603.868 184.817 605.596 184.817C607.516 184.817 609.064 185.177 610.24 185.897C611.416 186.593 612.232 187.505 612.688 188.633C613.144 189.761 613.252 190.973 613.012 192.269L609.988 192.917C610.3 190.685 610.072 188.969 609.304 187.769C608.56 186.569 607.264 185.969 605.416 185.969C603.952 185.969 602.8 186.365 601.96 187.157C601.12 187.925 600.7 189.053 600.7 190.541C600.7 191.717 601.036 192.725 601.708 193.565C602.38 194.381 603.568 195.029 605.272 195.509L607.756 196.229C611.764 197.333 613.768 199.673 613.768 203.249C613.768 204.521 613.468 205.673 612.868 206.705C612.292 207.713 611.404 208.517 610.204 209.117C609.028 209.717 607.54 210.017 605.74 210.017C604.492 210.017 603.292 209.825 602.14 209.441C601.012 209.057 600.04 208.397 599.224 207.461C598.432 206.525 597.904 205.229 597.64 203.573L599.8 202.853C599.92 204.437 600.268 205.661 600.844 206.525C601.42 207.389 602.14 208.001 603.004 208.361C603.868 208.697 604.78 208.865 605.74 208.865Z" fill="white"/>
<path d="M696.034 208.865C697.642 208.865 698.938 208.469 699.922 207.677C700.93 206.885 701.434 205.721 701.434 204.185C701.434 202.961 701.062 201.941 700.318 201.125C699.574 200.285 698.278 199.613 696.43 199.109L693.946 198.389C692.122 197.885 690.73 197.033 689.77 195.833C688.81 194.633 688.33 193.169 688.33 191.441C688.33 190.289 688.594 189.209 689.122 188.201C689.674 187.193 690.502 186.377 691.606 185.753C692.734 185.129 694.162 184.817 695.89 184.817C697.81 184.817 699.358 185.177 700.534 185.897C701.71 186.593 702.526 187.505 702.982 188.633C703.438 189.761 703.546 190.973 703.306 192.269L700.282 192.917C700.594 190.685 700.366 188.969 699.598 187.769C698.854 186.569 697.558 185.969 695.71 185.969C694.246 185.969 693.094 186.365 692.254 187.157C691.414 187.925 690.994 189.053 690.994 190.541C690.994 191.717 691.33 192.725 692.002 193.565C692.674 194.381 693.862 195.029 695.566 195.509L698.05 196.229C702.058 197.333 704.062 199.673 704.062 203.249C704.062 204.521 703.762 205.673 703.162 206.705C702.586 207.713 701.698 208.517 700.498 209.117C699.322 209.717 697.834 210.017 696.034 210.017C694.786 210.017 693.586 209.825 692.434 209.441C691.306 209.057 690.334 208.397 689.518 207.461C688.726 206.525 688.198 205.229 687.934 203.573L690.094 202.853C690.214 204.437 690.562 205.661 691.138 206.525C691.714 207.389 692.434 208.001 693.298 208.361C694.162 208.697 695.074 208.865 696.034 208.865Z" fill="white"/>
<path d="M718.925 186.149V185.177H729.149C731.525 185.177 733.337 185.777 734.585 186.977C735.833 188.153 736.457 189.725 736.457 191.693V192.737C736.457 194.705 735.833 196.289 734.585 197.489C733.337 198.689 731.525 199.289 729.149 199.289H724.829V206.741C724.829 207.581 724.865 208.085 724.937 208.253C725.009 208.397 725.237 208.481 725.621 208.505L728.321 208.721V209.657H718.925V208.721L720.905 208.505C721.289 208.457 721.517 208.361 721.589 208.217C721.661 208.073 721.697 207.581 721.697 206.741V188.093C721.697 187.253 721.661 186.761 721.589 186.617C721.517 186.473 721.289 186.377 720.905 186.329L718.925 186.149ZM729.149 186.329H724.829V198.137H729.149C731.813 198.137 733.145 196.505 733.145 193.241V191.189C733.145 187.949 731.813 186.329 729.149 186.329Z" fill="white"/>
<path d="M753.652 208.721V209.657H746.812V208.721L748.756 208.505C749.02 208.481 749.212 208.445 749.332 208.397C749.452 208.325 749.56 208.181 749.656 207.965C749.776 207.725 749.92 207.317 750.088 206.741L757.036 185.177H759.304L766.324 206.741C766.492 207.317 766.624 207.725 766.72 207.965C766.84 208.181 766.96 208.325 767.08 208.397C767.2 208.445 767.38 208.481 767.62 208.505L769.6 208.721V209.657H760.852V208.721L762.832 208.505C763.216 208.457 763.42 208.361 763.444 208.217C763.492 208.049 763.384 207.557 763.12 206.741L761.644 202.133H752.86L751.384 206.741C751.12 207.557 751 208.049 751.024 208.217C751.072 208.361 751.288 208.457 751.672 208.505L753.652 208.721ZM753.22 200.981H761.284L757.252 188.453L753.22 200.981Z" fill="white"/>
</svg>
