<svg width="1440" height="244" viewBox="0 0 1440 244" fill="none" xmlns="http://www.w3.org/2000/svg">
<path d="M1232.53 31.5745C1252.96 31.2601 1274.03 31.5778 1294.55 31.4443C1294.73 35.6763 1294.62 39.563 1294.52 43.781C1286.32 43.7195 1278.77 43.5918 1270.57 44.2703L1270.54 213.932L1258.44 214.07C1254.51 213.376 1233.07 183.198 1229.31 178.216L1172.09 102.687C1163.17 90.9487 1150.5 73.1677 1141.34 62.7526C1143.49 107.044 1139.54 153.71 1141.45 198.25C1148.95 198.506 1157.31 198.359 1164.87 198.39L1165.49 210.341C1145.46 209.971 1123.02 211.835 1103.03 210.314C1102.85 206.146 1102.08 202.775 1104.55 199.58C1108.56 196.82 1120.04 198.331 1126.64 198.203C1127.85 186.84 1127.1 158.735 1127.1 146.505L1127.07 43.9945C1119.19 43.662 1111.09 43.9135 1102.92 43.5574C1102.86 39.466 1102.98 35.7914 1103.15 31.7019C1116.8 31.0366 1134.57 31.5309 1148.63 31.4355L1224.06 130.797C1229.19 137.58 1251.73 168.588 1256.51 172.881L1256.54 43.9619L1232.42 43.5725C1232.24 40.0727 1232.46 35.1783 1232.53 31.5745Z" fill="#E9E6D9"/>
<path d="M735.02 31.5739C754.374 31.1676 773.952 32.0146 793.341 31.3513C793.489 35.0337 793.292 39.9579 793.257 43.7352C786.911 44.1278 779.595 43.8385 772.554 44.2663C757.452 66.7498 740.024 90.6173 725.632 113.11C730.993 122.498 740.466 135.831 746.735 145.199L782.259 198.285L801.078 198.297C801.366 202.357 801.24 206.705 801.198 210.797L790.045 210.598C771.275 211.015 749.687 211.1 730.958 210.697C730.769 207.004 730.881 202.166 730.86 198.381L751.816 198.321C744.901 186.551 735.646 173.388 728.042 161.815C722.814 153.863 714.577 140.866 708.857 133.75C704.704 138.694 693.797 155.397 689.546 161.91C683.35 171.403 670.153 188.925 665.326 198.228C672.548 198.537 680.931 198.377 688.241 198.411C688.643 201.4 688.615 207.071 688.688 210.271C681.669 210.779 636.028 211.328 630.801 210.236C628.696 208.306 628.486 202.234 629.805 199.917C633.148 197.399 644.509 198.265 649.636 198.167L683.463 148.746C687.749 142.553 698.69 127.532 701.487 121.901C683.516 97.1715 667.108 69.0991 649.174 44.0904C644.259 43.5263 635.586 43.6771 630.341 43.6374C630.127 39.7583 630.219 35.5296 630.231 31.6172C652.524 30.9228 678.061 31.6006 700.727 31.4686L700.677 43.8842C694.344 43.5971 686.338 43.6167 680.114 44.4456C683.564 50.796 689.995 59.8859 694.113 66.0847L718.175 102.17C729.693 84.2704 745.526 61.1672 758.155 44.1478C750.902 43.5193 742.315 43.7401 734.929 43.7652C734.669 39.6098 734.866 35.7182 735.02 31.5739Z" fill="#E9E6D9"/>
<path d="M369.198 31.7441C390.526 30.6865 416.553 31.7443 438.584 31.4349C438.96 35.0822 439.806 38.9757 437.929 42.072C434.336 45.3634 423.533 43.5912 416.096 44.3814L415.99 109.115C415.975 144.211 409.388 193.607 455.714 198.1C519.957 204.33 516.359 160.235 516.381 113.678C516.274 90.4476 516.337 67.2167 516.571 43.9871C509.276 43.6835 501.173 43.7562 493.815 43.6658C493.334 38.9854 493.531 36.4066 493.856 31.6788C502.235 31.2135 513.384 31.5693 521.963 31.595C532.323 31.6339 542.682 31.5873 553.042 31.4552L553.188 43.7456C545.597 43.7318 538.027 43.5887 530.474 44.3679L530.614 111.21C530.655 163.36 535.379 211.81 467.42 213.974C390.595 216.42 392.037 171.639 392.072 111.882C392.22 89.243 392.17 66.6031 391.924 43.9647L369.295 43.6173C368.901 38.8211 368.871 36.5424 369.198 31.7441Z" fill="#E9E6D9"/>
<path d="M863.777 31.5359L929.716 31.5312C930.032 35.584 930.088 39.5526 930.172 43.6109C923.714 44.1179 916.321 43.7644 909.09 44.3261C922.477 67.4908 939.449 93.5563 953.623 116.776C964.628 102.212 974.017 82.7704 984.417 67.3287C989.273 60.1105 994.502 51.4763 998.943 43.9888C993.574 43.4676 984.628 43.722 978.971 43.735C978.816 39.8501 978.922 35.5193 978.929 31.5975L1030.12 31.5507L1030.47 35.5461C1031.45 47.0922 1022.98 43.489 1013.48 44.1587C1011.31 46.8798 1006.17 55.5918 1004.1 58.9429C997.924 68.8075 991.852 78.7342 985.879 88.7213C977.601 101.527 968.725 117.64 960.201 129.701C959.013 149.515 959.955 177.942 960.011 198.281L982.681 198.405L982.801 210.553C963.567 210.893 931.437 211.747 912.948 210.492C912.73 206.935 912.927 201.989 912.969 198.325L935.499 198.376L935.436 133C928.753 120.989 919.603 107.058 912.267 95.2362C901.761 78.0613 891.114 60.9707 880.334 43.9671C874.55 43.991 869.589 43.8301 863.812 43.5075C863.672 39.6084 863.756 35.457 863.777 31.5359Z" fill="#E9E6D9"/>
<path d="M145.451 31.6426C167.765 31.1094 191.971 31.5405 214.436 31.5241L214.477 43.7466C206.42 43.6503 199.927 43.5816 191.93 44.2389C191.742 50.5235 191.797 57.0989 191.858 63.3924C192.288 107.57 191.202 151.974 191.887 196.126C218.413 196.725 247.238 196.135 273.993 196.211C274.667 187.741 274.353 175.172 274.665 166.18C279.535 166.004 284.25 164.799 287.732 168.405C288.905 171.398 288.242 179.193 288.168 183C288.141 192.169 288.191 201.337 288.318 210.505C254.161 211.998 218.21 209.558 183.834 210.759C171.503 211.19 157.535 211.088 145.254 210.538L145.309 198.456C152.365 198.168 160.647 198.313 167.803 198.254C168.435 146.996 167.045 95.1988 168.053 43.9643C161.254 43.558 152.11 43.7671 145.134 43.7206C145.003 40.1516 145.318 35.3038 145.451 31.6426Z" fill="#E9E6D9"/>
</svg>
